<?xml version="1.0" standalone="no"?>
<!DOCTYPE svg PUBLIC "-//W3C//DTD SVG 20010904//EN"
 "http://www.w3.org/TR/2001/REC-SVG-20010904/DTD/svg10.dtd">
<svg version="1.0" xmlns="http://www.w3.org/2000/svg"
 width="300.000000pt" height="205.000000pt" viewBox="0 0 300.000000 205.000000"
 preserveAspectRatio="xMidYMid meet">
<g transform="translate(0.000000,205.000000) scale(0.100000,-0.100000)"
fill="#000000" stroke="none">
<path d="M537 1449 c-27 -14 -37 -25 -33 -35 3 -9 6 -160 6 -335 l0 -320 35 3
34 3 3 353 c2 193 1 352 -2 352 -3 -1 -22 -10 -43 -21z"/>
<path d="M1388 1304 c-29 -15 -50 -49 -62 -96 -9 -39 8 -35 19 4 13 40 38 57
59 39 20 -17 21 -93 4 -282 l-12 -137 -50 -10 c-142 -30 -269 -22 -313 19 -20
19 -23 32 -23 91 0 52 -4 70 -15 74 -19 8 -85 -36 -126 -84 -17 -19 -32 -32
-35 -29 -3 3 2 33 11 67 9 34 14 65 11 67 -13 14 -72 -25 -121 -80 -49 -54
-55 -58 -55 -35 0 14 11 46 25 72 l25 46 -26 -16 c-14 -10 -31 -29 -38 -43
-15 -29 -33 -211 -21 -211 19 0 74 52 106 99 19 28 38 51 43 51 5 0 7 -36 4
-79 -6 -97 -3 -97 99 13 l70 75 6 -49 c12 -100 44 -120 194 -120 114 0 161 11
203 47 17 14 32 24 33 22 1 -2 9 -17 17 -34 30 -58 111 -35 171 48 41 56 36
62 -17 22 -50 -39 -79 -44 -92 -17 -13 24 -2 192 12 192 33 0 87 23 97 41 10
20 9 21 -33 14 -23 -3 -51 -9 -60 -11 -17 -5 -17 3 -12 99 6 98 6 105 -15 126
-25 25 -45 26 -83 5z"/>
<path d="M1658 1001 c-47 -27 -47 -27 -26 -45 19 -17 20 -25 14 -112 l-6 -94
29 0 c27 0 30 3 36 43 3 23 5 85 3 138 l-3 97 -47 -27z"/>
<path d="M1127 1014 c-14 -14 -7 -35 11 -32 9 2 17 10 17 17 0 16 -18 25 -28
15z"/>
<path d="M1221 1006 c-8 -10 -8 -16 3 -25 10 -9 16 -8 26 3 12 15 6 36 -9 36
-5 0 -14 -6 -20 -14z"/>
<path d="M2213 1006 c-33 -15 -56 -43 -68 -85 l-8 -25 32 27 c18 15 44 27 57
27 24 0 24 -1 10 -27 -48 -95 -58 -139 -32 -155 6 -4 54 -8 107 -8 93 0 96 1
124 30 16 16 27 32 24 34 -2 2 -27 0 -56 -6 -29 -6 -77 -7 -107 -3 -67 8 -69
17 -30 105 14 32 24 66 22 77 -4 23 -34 27 -75 9z"/>
<path d="M1860 977 c-71 -36 -97 -65 -110 -123 -24 -106 75 -126 169 -33 l39
40 7 -29 c18 -83 122 -108 192 -47 l28 24 -55 1 c-35 0 -64 6 -79 16 -33 23
-51 74 -44 119 6 34 5 36 -13 27 -10 -6 -32 -25 -49 -42 -70 -75 -145 -112
-145 -72 0 26 47 67 108 94 51 23 52 25 35 41 -18 15 -23 14 -83 -16z"/>
<path d="M509 691 c-32 -33 -37 -66 -13 -92 14 -16 14 -20 -1 -43 -22 -32 -16
-33 31 -1 20 14 45 25 55 25 15 0 39 26 39 43 0 2 -20 3 -44 3 -77 -2 -90 43
-14 49 25 2 34 7 36 24 5 34 -52 29 -89 -8z"/>
<path d="M1690 705 c-20 -24 4 -45 26 -24 13 14 13 17 1 27 -11 10 -17 9 -27
-3z"/>
<path d="M1620 700 c-12 -7 -12 -12 -3 -21 9 -9 16 -9 27 1 26 21 5 39 -24 20z"/>
</g>
</svg>
