<?xml version="1.0" standalone="no"?>
<!DOCTYPE svg PUBLIC "-//W3C//DTD SVG 20010904//EN"
 "http://www.w3.org/TR/2001/REC-SVG-20010904/DTD/svg10.dtd">
<svg version="1.0" xmlns="http://www.w3.org/2000/svg"
 width="120.000000pt" height="86.000000pt" viewBox="0 0 120.000000 86.000000"
 preserveAspectRatio="xMidYMid meet">
<g transform="translate(0.000000,86.000000) scale(0.100000,-0.100000)"
fill="#000000" stroke="none">
<path d="M70 667 c0 -55 3 -67 25 -87 22 -21 25 -31 25 -98 0 -74 0 -74 -25
-68 -23 6 -25 4 -25 -25 0 -19 11 -46 27 -67 29 -39 23 -66 -16 -68 -12 -1
-24 -4 -28 -7 -10 -11 6 -55 32 -85 35 -42 76 -57 117 -43 23 8 41 8 65 0 45
-14 87 3 103 41 10 25 9 32 -11 59 -13 17 -29 31 -37 31 -24 0 -10 45 16 48
32 5 30 58 -4 95 -15 16 -24 36 -22 49 2 17 11 10 52 -41 40 -52 52 -62 72
-57 17 5 27 -1 44 -24 24 -33 19 -72 -8 -69 -32 3 -42 -1 -42 -17 0 -28 39
-82 76 -105 31 -19 40 -20 73 -10 28 8 46 8 71 0 42 -15 96 9 106 45 7 29 -28
86 -52 86 -26 0 -13 44 14 48 32 5 30 60 -3 100 -21 25 -25 40 -25 96 0 64 1
66 25 66 24 0 25 2 25 63 0 53 -4 67 -23 85 -20 19 -35 22 -108 22 l-86 0 -59
-74 c-32 -41 -63 -75 -69 -75 -5 0 -37 33 -69 74 l-60 75 -98 0 -98 0 0 -63z
m234 -52 c39 -47 75 -85 81 -85 6 0 44 38 84 85 l73 86 66 -3 67 -3 0 -30 c0
-25 -4 -30 -25 -30 l-25 0 4 -108 c4 -115 -6 -150 -36 -125 -11 9 -19 9 -33 0
-10 -6 -21 -8 -24 -5 -3 4 -6 42 -6 85 0 100 -11 101 -86 8 -31 -38 -57 -70
-59 -70 -1 0 -26 31 -56 70 -72 92 -88 92 -81 0 5 -77 -8 -111 -35 -88 -11 9
-19 9 -33 0 -10 -6 -21 -8 -24 -5 -3 4 -6 60 -6 126 l0 119 -25 -6 c-23 -6
-25 -4 -25 29 l0 35 68 0 67 0 69 -85z m186 -170 c0 -16 -34 -55 -48 -55 -22
0 -20 16 5 42 30 31 43 35 43 13z m-345 -75 c17 -18 20 -19 35 -5 15 14 18 14
30 0 12 -14 15 -13 36 6 12 11 30 19 41 16 15 -3 14 -6 -8 -15 -30 -12 -39
-30 -39 -78 0 -33 28 -74 50 -74 21 0 9 -20 -16 -26 -17 -4 -36 -1 -54 9 -24
14 -29 15 -46 2 -25 -19 -58 -19 -74 0 -9 10 -9 15 -1 15 6 0 20 9 31 20 33
33 22 130 -15 130 -7 0 -17 5 -20 10 -12 19 32 10 50 -10z m380 0 c16 -18 20
-18 34 -6 14 12 19 13 35 0 17 -12 21 -11 33 6 8 11 23 20 34 20 27 0 24 -17
-5 -24 -28 -7 -41 -49 -31 -97 5 -22 15 -34 38 -41 28 -10 29 -12 12 -25 -24
-17 -55 -16 -79 2 -16 12 -21 12 -40 0 -25 -18 -58 -19 -74 -3 -9 9 -5 16 18
30 25 15 30 24 30 59 0 47 -14 79 -35 79 -8 0 -15 5 -15 10 0 17 26 11 45 -10z"/>
<path d="M810 671 c0 -49 4 -65 25 -89 22 -26 25 -40 25 -101 0 -67 -1 -71
-22 -68 -36 3 -37 -47 -3 -83 33 -34 32 -75 -2 -75 -54 -1 -50 -46 8 -103 41
-40 61 -46 103 -32 24 7 41 8 61 0 55 -21 115 13 115 64 0 10 -16 33 -35 52
-37 34 -39 64 -4 64 30 0 26 70 -6 100 -22 21 -25 32 -25 92 0 66 1 68 25 68
24 0 25 2 25 63 0 53 -4 67 -23 85 -21 20 -34 22 -145 22 l-122 0 0 -59z m228
-3 c-2 -27 -7 -33 -27 -33 -23 0 -23 0 -22 -116 2 -93 -1 -118 -12 -122 -8 -3
-20 0 -26 6 -9 9 -16 9 -30 0 -10 -7 -22 -9 -25 -6 -3 4 -6 60 -6 125 l0 118
-25 -6 c-23 -6 -25 -4 -25 30 l0 36 101 0 100 0 -3 -32z m-153 -298 c16 -18
20 -18 34 -6 14 12 19 13 35 0 17 -12 21 -11 33 6 8 11 23 20 34 20 25 0 25
-16 -1 -23 -50 -13 -45 -129 6 -141 21 -6 24 -9 14 -21 -16 -19 -59 -19 -84 0
-16 12 -21 12 -40 0 -26 -19 -60 -19 -76 0 -10 12 -7 15 14 21 30 7 39 32 34
90 -2 29 -9 42 -25 49 -13 5 -23 13 -23 17 0 15 27 8 45 -12z"/>
</g>
</svg>
